<svg width="18" height="24" viewBox="0 0 18 24" fill="none" xmlns="http://www.w3.org/2000/svg">
<path d="M0.818182 24V0.727272H8.68182C10.5 0.727272 11.9924 1.03788 13.1591 1.65909C14.3258 2.27273 15.1894 3.11742 15.75 4.19318C16.3106 5.26894 16.5909 6.49242 16.5909 7.86364C16.5909 9.23485 16.3106 10.4508 15.75 11.5114C15.1894 12.572 14.3295 13.4053 13.1705 14.0114C12.0114 14.6098 10.5303 14.9091 8.72727 14.9091H2.36364V12.3636H8.63636C9.87879 12.3636 10.8788 12.1818 11.6364 11.8182C12.4015 11.4545 12.9545 10.9394 13.2955 10.2727C13.6439 9.59848 13.8182 8.79545 13.8182 7.86364C13.8182 6.93182 13.6439 6.11742 13.2955 5.42045C12.947 4.72348 12.3902 4.18561 11.625 3.80682C10.8598 3.42045 9.84848 3.22727 8.59091 3.22727H3.63636V24H0.818182ZM11.7727 13.5455L17.5 24H14.2273L8.59091 13.5455H11.7727Z" fill="#508A16"/>
</svg>
